<svg width="22" height="22" viewBox="0 0 22 22" fill="none" xmlns="http://www.w3.org/2000/svg">
<circle cx="11" cy="11" r="11" fill="#50CFB6"/>
<g clip-path="url(#clip0_41_290)">
<path d="M14.5634 11.8071C14.099 11.8071 13.6429 11.7345 13.2108 11.5917C12.999 11.5194 12.7387 11.5857 12.6094 11.7184L11.7565 12.3623C10.7672 11.8343 10.1579 11.2251 9.63704 10.2433L10.262 9.41258C10.4244 9.25042 10.4826 9.01355 10.4128 8.7913C10.2694 8.35687 10.1966 7.90105 10.1966 7.43639C10.1966 7.10072 9.9235 6.82764 9.58785 6.82764H8.19467C7.85902 6.82764 7.58594 7.10072 7.58594 7.43637C7.58594 11.2838 10.716 14.4138 14.5634 14.4138C14.8991 14.4138 15.1722 14.1408 15.1722 13.8051V12.4158C15.1721 12.0802 14.8991 11.8071 14.5634 11.8071Z" fill="white"/>
</g>
<defs>
<clipPath id="clip0_41_290">
<rect width="7.58621" height="7.58621" fill="white" transform="translate(7.58594 6.82764)"/>
</clipPath>
</defs>
</svg>
